<svg version="1.1" id="Layer_1" xmlns="http://www.w3.org/2000/svg" xmlns:xlink="http://www.w3.org/1999/xlink" x="0px" y="0px" width="100%" viewBox="0 0 1280 853" enable-background="new 0 0 1280 853" xml:space="preserve">

<path fill="#FDFDFD" opacity="1.000000" stroke="none" d="
M75.008041,351.401855 
	C69.719223,351.401855 64.928535,351.401855 59.547729,351.401855 
	C59.547729,344.089600 59.265800,337.130920 59.609795,330.203308 
	C60.218121,317.952332 59.431690,305.273621 62.376339,293.565521 
	C70.595215,260.886688 91.938393,239.792679 124.544968,231.281921 
	C172.521072,218.759506 224.250351,254.851608 230.121414,303.335632 
	C230.477386,306.275421 230.916931,309.232697 230.924072,312.182770 
	C230.988525,338.846008 231.016541,365.509552 230.953644,392.172791 
	C230.884766,421.369263 207.067719,445.195557 177.939026,445.323151 
	C172.939896,445.345062 167.938843,445.270416 162.941910,445.382935 
	C152.096664,445.627136 145.463089,452.090729 145.434265,462.855133 
	C145.337875,498.850403 145.326584,534.846252 145.419754,570.841492 
	C145.449036,582.156555 151.836792,588.350464 163.187531,588.389221 
	C183.184845,588.457520 203.182739,588.461243 223.180008,588.387146 
	C233.976791,588.347168 240.986420,581.245300 240.989853,570.585144 
	C240.997025,548.272400 240.992035,525.959717 240.992035,503.332581 
	C253.447235,503.332581 265.690094,503.332581 278.496735,503.332581 
	C278.496735,505.089325 278.496735,506.880646 278.496735,508.671967 
	C278.496796,530.669250 278.462952,552.666626 278.506348,574.663818 
	C278.551025,597.304688 259.695862,620.593018 237.409042,624.918518 
	C231.737411,626.019287 225.881165,626.571289 220.101288,626.637634 
	C201.606003,626.850281 183.106750,626.721680 164.609024,626.715576 
	C134.511993,626.705566 112.761810,608.577515 107.346222,578.943237 
	C107.049965,577.322083 107.078949,575.628235 107.078339,573.968262 
	C107.064522,536.139587 107.058266,498.310883 107.070839,460.482208 
	C107.079948,433.103485 131.459305,408.375977 158.872589,407.956757 
	C164.537186,407.870117 170.204697,407.992950 175.870193,407.942596 
	C185.364609,407.858215 192.599579,401.136261 192.629044,391.807404 
	C192.713776,364.979889 192.867844,338.146545 192.411163,311.325439 
	C192.061493,290.788818 174.903488,271.679443 154.569489,268.059387 
	C129.478546,263.592438 107.371201,276.788635 99.740326,301.028778 
	C98.610199,304.618683 98.140335,308.541260 98.081711,312.321045 
	C97.882904,325.140656 98.005806,337.965240 98.005806,351.401886 
	C90.368896,351.401886 82.937531,351.401886 75.008041,351.401855 
z" data-index="1"></path>
<path fill="#FDFDFD" opacity="1.000000" stroke="none" d="
M342.932648,440.000000 
	C342.932648,473.999542 342.932495,507.499054 342.932709,540.998596 
	C342.932800,560.504150 354.612457,577.713440 372.679169,584.829285 
	C389.979492,591.643311 411.816254,586.756958 424.580170,573.164856 
	C433.012817,564.184998 437.579590,553.649475 437.576202,541.184021 
	C437.555664,465.851898 437.567291,390.519775 437.614716,315.187653 
	C437.623444,301.358459 433.025696,289.511169 422.775299,279.970245 
	C444.013672,269.540375 469.165894,282.321320 474.971375,306.275391 
	C475.552429,308.672943 475.856750,311.199646 475.858215,313.666656 
	C475.902924,388.832245 475.966003,463.997925 475.858978,539.163391 
	C475.812134,572.064392 460.926453,597.040955 433.168793,613.848267 
	C385.555145,642.678406 323.490753,618.086304 307.843384,564.476440 
	C305.777924,557.399963 304.666321,549.783630 304.644196,542.412659 
	C304.416107,466.414429 304.188568,390.413361 304.641663,314.417114 
	C304.853485,278.892029 322.363922,253.229675 353.535950,236.943405 
	C367.916351,229.430176 381.204010,227.363739 393.625427,229.062668 
	C387.264282,233.857544 380.285706,238.339600 374.221344,243.831268 
	C353.986206,262.155548 343.134613,285.064514 342.991852,312.502838 
	C342.771606,354.834167 342.933105,397.167511 342.932648,440.000000 
z" data-index="2" style="opacity: 1;"></path>
<path fill="#FDFDFD" opacity="1.000000" stroke="none" d="
M390.313141,526.998596 
	C390.688354,535.468018 390.547150,543.509521 391.639404,551.379883 
	C392.258789,555.842712 394.527374,560.228394 396.736237,564.276062 
	C398.928070,568.292480 401.976685,571.841370 404.639709,575.581543 
	C393.933838,580.940796 374.697052,578.937073 364.034851,568.349548 
	C355.911530,560.283081 351.980896,550.780151 351.991699,539.342773 
	C352.061768,465.183044 352.103119,391.023041 351.986267,316.863403 
	C351.945892,291.247803 361.381836,269.814941 380.063965,252.651703 
	C400.574280,233.808899 424.814819,225.649506 452.631561,229.957321 
	C492.236969,236.090790 523.253784,272.261108 523.287659,312.233826 
	C523.352661,389.059998 523.179138,465.886627 523.366211,542.712402 
	C523.469055,584.927673 488.636688,622.546570 447.151733,626.055298 
	C442.616089,626.438904 438.068817,626.685059 433.395752,626.335815 
	C449.651276,617.017334 462.849030,605.005798 472.342834,589.087524 
	C481.411285,573.882507 485.950562,557.373657 485.967407,539.719177 
	C486.038361,465.226074 485.997742,390.732880 485.997223,316.239746 
	C485.997070,290.548676 468.031830,270.189178 442.066620,267.309326 
	C421.820709,265.063812 397.961121,277.582275 391.388885,304.108124 
	C390.285889,308.559814 390.366669,313.372345 390.362518,318.018555 
	C390.300385,387.511993 390.315887,457.005524 390.313141,526.998596 
z" data-index="3" style="opacity: 1;"></path>
<path fill="#FDFDFD" opacity="1.000000" stroke="none" d="
M115.223740,626.715576 
	C82.358078,626.146790 62.684109,602.809814 59.842072,578.825073 
	C59.627415,577.013611 59.560921,575.175232 59.560154,573.349243 
	C59.544460,535.870483 59.537106,498.391693 59.552044,460.912933 
	C59.563396,432.428253 83.894821,408.072540 112.428078,407.956085 
	C116.921303,407.937744 121.414650,407.953491 127.000298,407.953491 
	C125.295639,409.345001 124.296066,410.185059 123.271675,410.993622 
	C107.379013,423.538300 98.067169,439.513214 98.025780,460.145386 
	C97.951271,497.290863 98.164406,534.437622 97.944046,571.581909 
	C97.814735,593.379517 106.742783,610.388062 123.734291,623.541870 
	C124.639313,624.242432 125.524345,624.969360 126.401070,625.705017 
	C126.473755,625.765991 126.410683,625.988647 126.410683,626.715881 
	C122.852707,626.715881 119.269875,626.715881 115.223740,626.715576 
z" data-index="4"></path>
<path fill="#FCFCFC" opacity="1.000000" stroke="none" d="
M207.432968,229.384155 
	C237.822327,236.052811 259.338898,253.173813 271.814148,281.264221 
	C276.370850,291.524506 278.606995,302.356995 278.547272,313.695740 
	C278.406860,340.358551 278.613037,367.023193 278.469116,393.685974 
	C278.312225,422.758606 254.435349,444.014679 227.196747,445.327393 
	C222.246124,445.565979 217.274139,445.361420 211.150482,445.361420 
	C214.516769,442.494720 217.110107,440.402679 219.574509,438.168427 
	C233.916061,425.166229 241.049728,408.987579 241.008606,389.605621 
	C240.958054,365.775208 241.123260,341.943726 240.967743,318.114197 
	C240.716629,279.636047 223.913239,250.568100 190.860840,230.877060 
	C190.204727,230.486176 189.636795,229.947266 189.266174,228.471161 
	C195.177277,228.757645 201.088379,229.044144 207.432968,229.384155 
z" data-index="5"></path>
<path fill="#FCFCFC" opacity="1.000000" stroke="none" d="
M925.383545,354.000458 
	C925.383484,364.140411 925.383484,373.779968 925.383484,383.710876 
	C918.808411,383.710876 912.567749,383.710876 906.035522,383.710876 
	C906.035522,347.184479 906.035522,310.640747 906.035522,273.038269 
	C926.159485,273.685211 946.278931,273.494354 966.225952,275.255981 
	C980.478882,276.514709 989.698914,286.948700 991.637085,300.201752 
	C993.917297,315.793915 988.307983,326.983154 974.666870,334.075836 
	C974.082947,334.379425 973.543701,334.768860 972.393250,335.486633 
	C978.645752,351.387177 984.923096,367.350861 991.469177,383.998077 
	C984.679138,383.998077 978.429260,384.184875 972.210449,383.828644 
	C971.069580,383.763275 969.614014,381.663208 969.051575,380.212372 
	C964.366455,368.127075 959.693604,356.031250 955.386719,343.808350 
	C953.971375,339.791718 952.173889,337.987183 947.650513,338.262543 
	C940.532837,338.695831 933.369507,338.377686 925.383606,338.377686 
	C925.383606,343.671356 925.383606,348.585693 925.383545,354.000458 
M925.602783,321.740204 
	C936.942505,321.673462 948.401978,322.585358 959.582275,321.216644 
	C967.864075,320.202759 971.565002,313.455658 971.297852,305.138733 
	C971.056213,297.616119 966.864319,291.623657 958.785278,290.593597 
	C947.867432,289.201599 936.751831,289.360474 925.392334,288.838837 
	C925.392334,300.257812 925.392334,310.560547 925.602783,321.740204 
z" data-index="6" style="opacity: 1;"></path>
<path fill="#F9F9F9" opacity="1.000000" stroke="none" d="
M1051.861084,385.308380 
	C1039.476074,385.808746 1028.222656,383.598358 1018.155334,376.854340 
	C1011.242859,372.223755 1007.061401,365.695099 1004.681213,357.288391 
	C1011.083984,355.910278 1017.039673,354.628418 1023.365723,353.266876 
	C1024.353271,355.292236 1024.863159,357.873383 1026.431030,359.244446 
	C1030.075684,362.431274 1033.874146,365.925568 1038.257080,367.678009 
	C1045.997192,370.772858 1054.225952,370.406128 1062.187012,367.703247 
	C1068.471802,365.569427 1072.734497,360.004974 1072.563110,354.462158 
	C1072.372925,348.310822 1068.702026,343.559448 1061.969482,341.585876 
	C1052.249634,338.736603 1042.375977,336.406281 1032.676270,333.493622 
	C1018.598694,329.266418 1011.605286,320.724060 1010.335693,306.865265 
	C1009.189392,294.352112 1016.063293,282.694489 1028.221802,276.531830 
	C1045.611328,267.717773 1072.196533,271.902771 1083.581787,285.482727 
	C1085.962769,288.322510 1087.496582,291.872498 1089.740356,295.630615 
	C1083.407593,297.233521 1077.993042,298.739136 1072.500732,299.865814 
	C1071.546875,300.061462 1069.854004,298.930267 1069.197632,297.947571 
	C1062.690918,288.205902 1047.190186,284.722900 1037.369629,290.925995 
	C1033.147949,293.592560 1030.609131,297.133179 1030.930176,302.413208 
	C1031.236328,307.448730 1034.382202,310.574371 1038.514526,312.020386 
	C1046.322388,314.752625 1054.409180,316.684998 1062.369751,318.985565 
	C1065.872559,319.997894 1069.362549,321.058990 1072.837036,322.164734 
	C1085.079712,326.060913 1091.987305,334.608765 1093.324585,347.181854 
	C1094.851929,361.543518 1088.932495,372.454559 1076.270508,379.457550 
	C1068.861206,383.555420 1060.803101,385.403595 1051.861084,385.308380 
z" data-index="7"></path>
<path fill="#F9F9F9" opacity="1.000000" stroke="none" d="
M852.838806,357.605194 
	C841.524719,357.605194 830.691223,357.707001 819.861877,357.539703 
	C816.839661,357.493042 815.513550,358.441711 814.653381,361.405334 
	C812.483826,368.880096 809.876282,376.227753 807.391052,383.788361 
	C801.954102,383.788361 796.663757,383.788361 790.537598,383.788361 
	C793.125000,375.829315 795.612793,368.050323 798.181458,360.298126 
	C807.317566,332.726227 816.548340,305.185272 825.543091,277.567383 
	C826.578613,274.387787 827.995911,273.419189 831.175659,273.583191 
	C836.161499,273.840393 841.210510,274.037537 846.157654,273.529236 
	C850.410828,273.092255 851.938721,274.944733 853.136658,278.559845 
	C863.702087,310.444244 874.397644,342.285522 885.054321,374.139740 
	C886.100647,377.267365 887.144836,380.395691 888.294312,383.835754 
	C881.034119,383.835754 874.241882,383.835754 867.164551,383.835754 
	C864.703186,376.664124 861.919678,369.554962 859.891724,362.236420 
	C858.825317,358.388336 857.069946,356.949829 852.838806,357.605194 
M843.833313,313.641693 
	C841.665588,307.102722 839.497864,300.563751 836.913635,292.768402 
	C831.353760,309.824799 826.225281,325.557617 821.001709,341.582214 
	C832.017944,341.582214 842.141479,341.582214 852.931152,341.582214 
	C849.880798,332.307922 846.938538,323.362213 843.833313,313.641693 
z" data-index="8" style="opacity: 1;"></path>
<path fill="#FAFAFA" opacity="1.000000" stroke="none" d="
M747.000000,383.993469 
	C734.343933,383.993439 722.187805,383.993439 709.695435,383.993439 
	C709.695435,347.212128 709.695435,310.658936 709.695435,273.650513 
	C721.477600,273.650513 733.091431,273.650543 744.705200,273.650543 
	C756.346558,273.650543 767.987976,273.650513 779.941528,273.650513 
	C779.941528,279.026062 779.941528,284.124786 779.941528,289.843079 
	C763.310425,289.843079 746.456299,289.843079 729.412354,289.843079 
	C729.412354,300.047363 729.412354,309.636505 729.412354,319.719788 
	C742.932739,319.719788 756.349182,319.719788 770.071655,319.719788 
	C770.071655,325.268250 770.071655,330.328552 770.071655,335.907288 
	C756.510803,335.907288 743.103882,335.907288 729.463501,335.907288 
	C729.463501,346.332153 729.463501,356.243164 729.463501,366.621063 
	C746.517639,366.621063 763.438354,366.621063 780.680115,366.621063 
	C780.680115,372.490692 780.680115,377.904480 780.680115,383.993500 
	C769.689880,383.993500 758.594971,383.993500 747.000000,383.993469 
z" data-index="9" style="opacity: 1;"></path>
<path fill="#FBFBFB" opacity="1.000000" stroke="none" d="
M631.576599,284.423767 
	C638.170288,295.967255 644.591675,307.186035 651.371033,319.030273 
	C659.193665,304.914642 666.714905,291.641083 673.890930,278.183472 
	C675.680481,274.827454 677.532959,273.205475 681.489502,273.568451 
	C685.884094,273.971588 690.344116,273.660706 695.507324,273.660706 
	C686.966309,288.921539 678.872620,303.381775 670.780457,317.842865 
	C667.612305,323.504578 664.314392,329.100006 661.360291,334.871368 
	C660.432190,336.684570 660.080566,338.970306 660.064697,341.044312 
	C659.956299,355.182617 660.007935,369.322144 660.007935,383.730713 
	C653.017334,383.730713 646.268188,383.730713 639.127930,383.730713 
	C639.030273,382.605988 638.832153,381.357605 638.827942,380.108521 
	C638.800598,371.943390 638.134277,363.707581 638.970703,355.628815 
	C640.330811,342.492004 636.198914,331.547455 629.138184,320.697205 
	C619.361938,305.674072 610.756104,289.889404 601.195923,273.661682 
	C609.128479,273.661682 616.398132,273.549255 623.656860,273.781036 
	C624.765625,273.816437 626.094177,275.259766 626.849976,276.372009 
	C628.526794,278.839844 629.904663,281.510864 631.576599,284.423767 
z" data-index="10"></path>
<path fill="#FCFCFC" opacity="1.000000" stroke="none" d="
M193.035980,536.454651 
	C196.090286,518.832825 208.983063,504.780579 230.644379,503.153839 
	C230.752655,504.399567 230.955612,505.652588 230.956467,506.905762 
	C230.970947,528.214722 230.972076,549.523621 230.947601,570.832581 
	C230.940979,576.589355 229.354492,578.154602 223.538712,578.170837 
	C213.230377,578.199585 202.921906,578.178955 193.021011,578.178955 
	C193.021011,564.300232 193.021011,550.604065 193.035980,536.454651 
z" data-index="11"></path>
<path fill="#FBFBFB" opacity="1.000000" stroke="none" d="
M117.670349,350.898102 
	C114.040245,351.415436 110.805313,351.825897 107.774879,352.210449 
	C107.774879,336.926941 105.942200,321.909302 108.183853,307.526672 
	C112.002998,283.022766 136.330887,270.639801 160.172623,279.636566 
	C158.590118,281.635284 157.113785,283.533081 155.602600,285.402740 
	C149.464584,292.996613 145.971298,301.596924 145.594925,311.412689 
	C144.805618,331.998505 136.207321,344.282501 117.670349,350.898102 
z" data-index="12"></path>
<path fill="#F1F1F1" opacity="1.000000" stroke="none" d="
M1217.155029,430.865631 
	C1218.727661,433.792297 1220.119019,436.407227 1221.829346,439.621948 
	C1219.096191,440.357391 1216.942749,440.936798 1214.524780,441.587372 
	C1212.537476,434.192413 1208.112305,429.828430 1200.156860,429.531952 
	C1193.534790,429.285126 1188.953247,432.195770 1186.272461,438.027069 
	C1181.819824,447.712860 1181.655396,457.750946 1185.515869,467.533905 
	C1188.733032,475.686646 1196.161377,479.111237 1203.950684,477.040100 
	C1211.730591,474.971436 1214.958130,469.492615 1214.147217,459.203125 
	C1209.620117,459.203125 1205.041748,459.203125 1200.200439,459.203125 
	C1200.200439,457.034698 1200.200439,455.332550 1200.200439,453.385590 
	C1207.411499,453.385590 1214.348755,453.385590 1221.663818,453.385590 
	C1221.663818,463.432404 1221.663818,473.473572 1221.663818,483.501678 
	C1215.696289,485.469757 1217.304565,479.824615 1216.267090,478.475647 
	C1210.730835,480.357300 1205.690918,483.043121 1200.409912,483.658051 
	C1190.122192,484.855988 1182.673706,479.594086 1178.562378,470.405731 
	C1172.917725,457.790680 1173.164917,445.113861 1180.953125,433.360077 
	C1189.418213,420.584442 1206.377075,419.432495 1217.155029,430.865631 
z" data-index="13" style="opacity: 1;"></path>
<path fill="#EEEEEE" opacity="1.000000" stroke="none" d="
M1161.893677,465.998108 
	C1161.893677,471.804291 1161.893677,477.110840 1161.893677,482.453705 
	C1157.310303,483.909119 1154.454956,482.984528 1152.016235,478.678162 
	C1144.151001,464.789337 1135.840454,451.152618 1127.690918,437.425079 
	C1127.116577,436.457581 1126.455566,435.541473 1124.990967,433.323517 
	C1124.990967,450.644379 1124.990967,466.596741 1124.990967,482.793701 
	C1122.723633,482.912476 1121.113647,482.996796 1119.213135,483.096313 
	C1119.213135,463.659760 1119.213135,444.393372 1119.213135,425.101715 
	C1126.192749,423.145721 1127.525513,423.560699 1131.089844,429.517517 
	C1139.109009,442.919983 1147.046143,456.371704 1155.825195,471.165924 
	C1155.825195,454.781097 1155.825195,439.851685 1155.825195,424.638428 
	C1158.026123,424.638428 1159.610474,424.638428 1161.893677,424.638428 
	C1161.893677,438.322479 1161.893677,451.910492 1161.893677,465.998108 
z" data-index="14"></path>
<path fill="#F4F4F4" opacity="1.000000" stroke="none" d="
M737.261841,424.360596 
	C742.391968,424.362762 747.062988,424.592560 751.704895,424.322510 
	C767.239746,423.418701 776.643616,434.497528 778.052917,447.232544 
	C778.759094,453.613556 778.030396,460.608276 776.080078,466.729462 
	C772.511230,477.930756 764.297058,482.971619 752.564575,483.016632 
	C746.256897,483.040802 739.949097,483.020935 733.338440,483.020935 
	C733.209045,481.786285 732.995789,480.691772 732.994446,479.597015 
	C732.973572,462.463470 733.052063,445.329346 732.912964,428.196899 
	C732.888306,425.159058 733.662292,423.794495 737.261841,424.360596 
M771.109192,450.749390 
	C769.105408,432.744049 759.172424,427.919617 740.325806,430.908936 
	C740.325806,445.988281 740.325806,461.056641 740.325806,476.387573 
	C744.739075,476.387573 748.877869,476.325409 753.014038,476.401642 
	C759.849060,476.527588 765.270935,473.571320 767.772217,467.460876 
	C769.778992,462.558624 770.061829,456.950684 771.109192,450.749390 
z" data-index="15" style="opacity: 1;"></path>
<path fill="#F1F1F1" opacity="1.000000" stroke="none" d="
M1000.017212,483.255554 
	C990.252075,480.562531 985.404663,473.671967 983.207031,464.856476 
	C979.957153,451.819702 980.882935,439.359619 990.841736,429.136810 
	C999.476013,420.273529 1014.752808,421.207397 1022.629639,430.794495 
	C1033.004395,443.421936 1032.331909,465.842072 1021.012085,477.660583 
	C1015.378784,483.541992 1008.266602,484.982025 1000.017212,483.255554 
M989.445007,450.633972 
	C989.158936,458.237030 989.910217,465.597198 994.648804,471.963318 
	C1000.737305,480.142944 1012.346802,479.647095 1017.573486,470.897186 
	C1023.435852,461.083160 1023.305725,450.560822 1019.990662,440.136047 
	C1017.733521,433.037994 1012.268738,429.510101 1005.933777,429.558258 
	C998.991882,429.611053 994.506165,432.968079 991.770691,440.567566 
	C990.713562,443.504425 990.217407,446.643250 989.445007,450.633972 
z" data-index="16" style="opacity: 1;"></path>
<path fill="#F1F1F1" opacity="1.000000" stroke="none" d="
M601.325562,462.335236 
	C600.330627,452.019440 600.168640,442.304443 605.866638,433.459106 
	C614.826050,419.550964 634.450439,419.508057 643.385437,433.447571 
	C650.997375,445.322937 650.286377,464.267548 641.809753,475.428192 
	C631.798096,488.610046 611.792297,486.365906 604.459656,471.168915 
	C603.170471,468.497101 602.393555,465.578125 601.325562,462.335236 
M610.160645,441.058197 
	C607.790527,450.444336 607.286255,459.679810 611.517273,468.807587 
	C614.200439,474.596100 618.821045,477.723969 624.773621,477.784454 
	C630.875366,477.846497 635.222900,474.147095 637.810730,468.538116 
	C641.762695,459.972656 642.021729,450.972137 639.476501,442.223419 
	C638.318970,438.244415 635.339600,433.995026 631.956116,431.624756 
	C624.075073,426.103790 615.955383,429.756287 610.160645,441.058197 
z" data-index="17" style="opacity: 1;"></path>
<path fill="#F1F1F1" opacity="1.000000" stroke="none" d="
M695.097961,562.908203 
	C692.374695,571.665649 688.459717,579.033447 679.534851,582.135559 
	C667.442627,586.338440 655.405701,580.190735 650.781494,567.614319 
	C647.395630,558.405640 647.206421,549.129578 650.259705,539.813843 
	C654.148743,527.947937 662.329895,522.394714 675.119995,522.856140 
	C684.119568,523.180786 693.046997,530.970520 694.889832,541.752380 
	C696.040894,548.486389 695.150879,555.569336 695.097961,562.908203 
M663.552307,531.864441 
	C654.149109,539.805176 654.109619,560.405579 659.854248,569.356812 
	C663.046082,574.330322 667.162354,577.386963 673.321045,576.981812 
	C679.277405,576.589966 683.099548,573.177063 685.408264,568.010925 
	C689.582458,558.670349 689.863586,549.011108 686.463013,539.453003 
	C682.824097,529.225159 673.605225,526.053101 663.552307,531.864441 
z" data-index="18" style="opacity: 1;"></path>
<path fill="#F9F9F9" opacity="1.000000" stroke="none" d="
M817.235352,574.949341 
	C817.234863,577.424377 817.234863,579.405762 817.234863,581.719116 
	C814.767883,581.719116 812.533569,581.719116 810.021118,581.719116 
	C810.021118,562.536621 810.021118,543.331848 810.021118,523.718140 
	C812.200378,523.718140 814.393616,523.718140 817.036743,523.718140 
	C817.036743,531.621460 817.036743,539.521057 817.036743,547.701050 
	C826.183044,547.701050 834.900269,547.701050 844.046021,547.701050 
	C844.046021,539.686096 844.046021,531.781250 844.046021,523.592651 
	C846.556946,523.592651 848.646790,523.592651 851.091248,523.592651 
	C851.091248,542.981445 851.091248,562.349243 851.091248,581.883545 
	C848.859070,581.883545 846.735413,581.883545 844.167480,581.883545 
	C844.167480,572.869995 844.167480,563.950867 844.167480,554.776733 
	C835.039246,554.776733 826.353333,554.776733 817.235901,554.776733 
	C817.235901,561.548401 817.235901,568.002014 817.235352,574.949341 
z" data-index="19" style="opacity: 1;"></path>
<path fill="#EFEFEF" opacity="1.000000" stroke="none" d="
M724.743103,583.078918 
	C715.178345,581.537048 709.582642,577.235779 709.142822,568.607056 
	C708.384155,553.724670 708.932678,538.775635 708.932678,523.564758 
	C710.879333,523.564758 712.973633,523.564758 715.840820,523.564758 
	C715.840820,525.318848 715.830505,527.069275 715.842468,528.819519 
	C715.926514,541.135498 715.819519,553.457214 716.176636,565.765381 
	C716.386108,572.982788 720.786865,576.767639 728.103455,576.964294 
	C736.583313,577.192139 741.594788,573.743286 742.078186,566.274780 
	C742.700562,556.658203 742.575867,546.992004 742.721008,537.346375 
	C742.788269,532.875305 742.732483,528.402405 742.732483,523.524963 
	C744.792053,523.426208 746.546875,523.342041 749.029480,523.222961 
	C749.029480,527.507629 749.029419,531.599854 749.029480,535.692139 
	C749.029663,544.182129 749.030334,552.672180 749.029785,561.162170 
	C749.028687,576.815674 740.891418,584.301025 724.743103,583.078918 
z" data-index="20" style="opacity: 1;"></path>
<path fill="#F1F1F1" opacity="1.000000" stroke="none" d="
M799.456543,457.922974 
	C799.443787,464.217804 799.443787,470.005524 799.443787,476.351746 
	C809.788391,476.351746 819.693176,476.351746 829.784973,476.351746 
	C829.784973,478.717133 829.784973,480.517670 829.784973,482.676331 
	C817.517151,482.676331 805.116333,482.676331 792.371948,482.676331 
	C792.371948,463.641541 792.371948,444.412476 792.371948,424.746948 
	C804.297852,424.746948 816.339172,424.746948 828.715576,424.746948 
	C828.715576,426.378021 828.715576,428.076355 828.715576,430.219421 
	C819.009827,430.219421 809.417236,430.219421 799.673828,430.219421 
	C799.673828,436.914429 799.673828,443.178711 799.673828,449.846436 
	C807.498474,449.846436 815.097473,449.846436 822.901123,449.846436 
	C822.901123,451.840485 822.901123,453.430267 822.901123,455.548492 
	C816.447449,455.548492 810.152161,455.432861 803.867065,455.633667 
	C802.383667,455.681030 800.934326,456.793457 799.456543,457.922974 
z" data-index="21"></path>
<path fill="#EEEEEE" opacity="1.000000" stroke="none" d="
M1044.179199,482.940002 
	C1043.510132,482.426086 1043.117310,481.997375 1043.116577,481.568024 
	C1043.086060,462.761749 1043.090210,443.955383 1043.090210,425.070435 
	C1052.667236,425.070435 1062.161621,424.140045 1071.371094,425.360504 
	C1078.937378,426.363251 1083.377563,434.610687 1082.941284,442.945129 
	C1082.533081,450.743652 1077.626709,456.974335 1069.822144,458.226471 
	C1063.804199,459.192047 1057.605225,459.028625 1050.942139,459.397339 
	C1050.942139,466.985931 1050.942139,474.696716 1050.942139,483.024902 
	C1048.489136,483.024902 1046.563721,483.024902 1044.179199,482.940002 
M1068.968262,451.867493 
	C1074.600342,448.344330 1076.311035,444.879517 1075.246948,439.151276 
	C1074.329346,434.210846 1070.983887,430.911835 1065.241577,430.354462 
	C1060.534668,429.897552 1055.748047,430.261353 1051.078003,430.261353 
	C1051.078003,437.946472 1051.078003,445.135590 1051.078003,452.943451 
	C1057.052734,452.661102 1062.625854,452.397705 1068.968262,451.867493 
z" data-index="22" style="opacity: 1;"></path>
<path fill="#F4F4F4" opacity="1.000000" stroke="none" d="
M902.084351,476.356506 
	C911.363220,476.371490 920.147949,476.371490 929.272034,476.371490 
	C929.272034,478.707794 929.272034,480.606415 929.272034,482.772369 
	C916.928833,482.772369 904.703918,482.772369 892.225525,482.772369 
	C892.225525,463.440430 892.225525,444.205292 892.225525,424.657166 
	C904.348389,424.657166 916.421265,424.657166 928.732422,424.657166 
	C928.732422,426.368500 928.732422,427.961456 928.732422,430.020081 
	C919.037781,430.020081 909.295532,430.020081 899.291870,430.020081 
	C899.291870,436.716125 899.291870,442.962769 899.291870,449.690369 
	C907.016052,449.690369 914.752808,449.690369 922.722900,449.690369 
	C922.722900,451.744690 922.722900,453.331268 922.722900,455.438782 
	C914.964233,455.438782 907.225464,455.438782 899.053528,455.438782 
	C899.053528,462.070740 898.972046,468.196777 899.165100,474.314178 
	C899.187256,475.014740 900.744568,475.666901 902.084351,476.356506 
z" data-index="23" style="opacity: 1;"></path>
<path fill="#EEEEEE" opacity="1.000000" stroke="none" d="
M869.425049,461.626465 
	C867.624695,466.850098 865.558594,471.607147 864.378906,476.574707 
	C863.132751,481.822296 860.930542,484.658722 854.816833,482.509460 
	C848.503174,463.711609 842.060669,444.530334 835.618896,425.351257 
	C841.882629,423.204529 842.848938,423.603241 844.799438,429.358398 
	C849.428101,443.015320 853.994141,456.693481 859.061890,471.781677 
	C860.194153,469.031830 860.916199,467.523499 861.446899,465.950592 
	C865.644104,453.510773 870.045471,441.131470 873.847961,428.571259 
	C875.205811,424.085968 877.502625,423.743225 881.635193,424.848358 
	C877.574097,437.080658 873.561584,449.166534 869.425049,461.626465 
z" data-index="24"></path>
<path fill="#F4F4F4" opacity="1.000000" stroke="none" d="
M662.621765,424.744690 
	C674.463440,424.500397 685.910095,424.500397 697.713074,424.500397 
	C697.799255,426.388184 697.870728,427.952911 697.965942,430.036865 
	C688.343140,430.036865 679.096741,430.036865 669.578552,430.036865 
	C669.578552,436.451660 669.578552,442.376007 669.578552,448.786835 
	C677.160461,448.786835 684.869263,448.786835 692.835571,448.786835 
	C692.835571,450.990051 692.835571,452.715576 692.835571,454.954834 
	C685.034729,454.954834 677.294128,454.954834 669.299561,454.954834 
	C669.299561,464.429443 669.299561,473.395905 669.299561,482.699890 
	C666.848145,482.699890 664.645386,482.699890 662.226746,482.699890 
	C662.226746,463.485168 662.226746,444.237061 662.621765,424.744690 
z" data-index="25" style="opacity: 1;"></path>
<path fill="#EEEEEE" opacity="1.000000" stroke="none" d="
M634.053589,532.942993 
	C635.223633,530.894470 636.422546,529.246765 637.144226,527.411377 
	C638.725952,523.388733 641.499878,522.427856 646.020935,523.840881 
	C644.506409,526.532776 643.080994,529.066223 641.655640,531.599670 
	C641.411682,532.033386 641.190491,532.481873 640.921082,532.899170 
	C631.375305,547.682556 622.416992,562.637146 627.970032,581.771484 
	C624.409546,581.771484 622.170776,581.771484 619.391479,581.771484 
	C619.391479,576.117615 619.096802,570.475159 619.478394,564.878845 
	C619.825928,559.781738 618.263855,555.540710 615.690735,551.303955 
	C610.693970,543.076355 605.969910,534.682922 601.152222,526.346985 
	C600.685364,525.539124 600.353577,524.653259 599.937256,523.756653 
	C605.554626,522.143738 609.030029,523.531433 611.600586,528.858765 
	C615.040833,535.988281 619.437561,542.656372 623.838074,550.236694 
	C627.386536,544.228882 630.626343,538.743835 634.053589,532.942993 
z" data-index="26" style="opacity: 1;"></path>
<path fill="#F4F4F4" opacity="1.000000" stroke="none" d="
M795.580261,523.260986 
	C799.759521,523.971558 799.759521,523.971558 799.090088,529.912598 
	C793.931641,529.912598 788.697998,529.912598 783.081238,529.912598 
	C783.081238,547.397095 783.081238,564.439209 783.081238,581.765320 
	C780.449890,581.765320 778.209290,581.765320 775.602722,581.765320 
	C775.602722,564.687622 775.602722,547.611877 775.602722,530.093872 
	C769.841125,530.093872 764.416138,530.093872 758.758789,530.093872 
	C758.758789,527.739502 758.758789,525.828552 758.758789,523.263855 
	C770.991333,523.263855 783.061096,523.263855 795.580261,523.260986 
z" data-index="27" style="opacity: 1;"></path>
<path fill="#F1F1F1" opacity="1.000000" stroke="none" d="
M941.997742,449.000000 
	C941.997742,440.688324 941.997742,432.876648 941.997742,424.701050 
	C944.649597,424.701050 947.035828,424.701050 949.816040,424.701050 
	C949.816040,441.814667 949.816040,458.726166 949.816040,476.174133 
	C958.729797,476.174133 967.279907,476.174133 976.156494,476.174133 
	C976.156494,478.603241 976.156494,480.501495 976.156494,482.725159 
	C965.081299,482.725159 953.846741,482.725159 941.997742,482.725159 
	C941.997742,471.671875 941.997742,460.585938 941.997742,449.000000 
z" data-index="28" style="opacity: 1;"></path>
<path fill="#E9E9E9" opacity="1.000000" stroke="none" d="
M1101.408203,424.883026 
	C1101.740234,444.247955 1101.740234,463.321625 1101.740234,482.733276 
	C1099.417847,482.733276 1097.182373,482.733276 1094.577881,482.733276 
	C1094.577881,463.623779 1094.577881,444.435944 1094.577881,424.591766 
	C1096.631348,424.591766 1098.853882,424.591766 1101.408203,424.883026 
z" data-index="29"></path>

<path fill="#0B0B0B" opacity="1.000000" stroke="none" d="
M843.914795,314.029114 
	C846.938538,323.362213 849.880798,332.307922 852.931152,341.582214 
	C842.141479,341.582214 832.017944,341.582214 821.001709,341.582214 
	C826.225281,325.557617 831.353760,309.824799 836.913635,292.768402 
	C839.497864,300.563751 841.665588,307.102722 843.914795,314.029114 
z" data-index="31" style="opacity: 1; visibility: hidden; fill: rgb(121, 40, 202); stroke: rgb(121, 40, 202);"></path>

<path fill="#060606" opacity="1.000000" stroke="none" d="
M989.455322,450.162018 
	C990.217407,446.643250 990.713562,443.504425 991.770691,440.567566 
	C994.506165,432.968079 998.991882,429.611053 1005.933777,429.558258 
	C1012.268738,429.510101 1017.733521,433.037994 1019.990662,440.136047 
	C1023.305725,450.560822 1023.435852,461.083160 1017.573486,470.897186 
	C1012.346802,479.647095 1000.737305,480.142944 994.648804,471.963318 
	C989.910217,465.597198 989.158936,458.237030 989.455322,450.162018 
z" data-index="33" style="opacity: 1; visibility: hidden; fill: rgb(121, 40, 202); stroke: rgb(121, 40, 202);"></path>

<path fill="#060606" opacity="1.000000" stroke="none" d="
M663.828369,531.600830 
	C673.605225,526.053101 682.824097,529.225159 686.463013,539.453003 
	C689.863586,549.011108 689.582458,558.670349 685.408264,568.010925 
	C683.099548,573.177063 679.277405,576.589966 673.321045,576.981812 
	C667.162354,577.386963 663.046082,574.330322 659.854248,569.356812 
	C654.109619,560.405579 654.149109,539.805176 663.828369,531.600830 
z" data-index="35" style="opacity: 1; visibility: hidden; fill: rgb(121, 40, 202); stroke: rgb(121, 40, 202);"></path>

</svg>